<svg width="200" height="200" viewBox="0 0 200 200" fill="none" xmlns="http://www.w3.org/2000/svg">
<rect x="5" y="5" width="190" height="190" rx="15" stroke="#89C4E1" stroke-width="10"/>
<path d="M116.591 79.6818C116.227 76.0151 114.667 73.1667 111.909 71.1364C109.152 69.1061 105.409 68.0909 100.682 68.0909C97.4697 68.0909 94.7576 68.5455 92.5455 69.4545C90.3333 70.3333 88.6364 71.5606 87.4545 73.1364C86.303 74.7121 85.7273 76.5 85.7273 78.5C85.6667 80.1667 86.0152 81.6212 86.7727 82.8636C87.5606 84.1061 88.6364 85.1818 90 86.0909C91.3636 86.9697 92.9394 87.7424 94.7273 88.4091C96.5152 89.0455 98.4242 89.5909 100.455 90.0455L108.818 92.0455C112.879 92.9545 116.606 94.1667 120 95.6818C123.394 97.197 126.333 99.0606 128.818 101.273C131.303 103.485 133.227 106.091 134.591 109.091C135.985 112.091 136.697 115.53 136.727 119.409C136.697 125.106 135.242 130.045 132.364 134.227C129.515 138.379 125.394 141.606 120 143.909C114.636 146.182 108.167 147.318 100.591 147.318C93.0758 147.318 86.5303 146.167 80.9545 143.864C75.4091 141.561 71.0758 138.152 67.9545 133.636C64.8636 129.091 63.2424 123.47 63.0909 116.773H82.1364C82.3485 119.894 83.2424 122.5 84.8182 124.591C86.4242 126.652 88.5606 128.212 91.2273 129.273C93.9242 130.303 96.9697 130.818 100.364 130.818C103.697 130.818 106.591 130.333 109.045 129.364C111.53 128.394 113.455 127.045 114.818 125.318C116.182 123.591 116.864 121.606 116.864 119.364C116.864 117.273 116.242 115.515 115 114.091C113.788 112.667 112 111.455 109.636 110.455C107.303 109.455 104.439 108.545 101.045 107.727L90.9091 105.182C83.0606 103.273 76.8636 100.288 72.3182 96.2273C67.7727 92.1667 65.5152 86.697 65.5455 79.8182C65.5152 74.1818 67.0152 69.2576 70.0455 65.0455C73.1061 60.8333 77.303 57.5455 82.6364 55.1818C87.9697 52.8182 94.0303 51.6364 100.818 51.6364C107.727 51.6364 113.758 52.8182 118.909 55.1818C124.091 57.5455 128.121 60.8333 131 65.0455C133.879 69.2576 135.364 74.1364 135.455 79.6818H116.591Z" fill="#89C4E1"/>
</svg>
