<svg width="58" height="58" viewBox="0 0 58 58" fill="none" xmlns="http://www.w3.org/2000/svg">
<rect x="2.83702" y="29" width="37" height="37" rx="4.5" transform="rotate(-45 2.83702 29)" stroke="#89C4E1" stroke-opacity="0.2" stroke-width="3"/>
<path d="M28.3411 21.7682C27.6286 21.1843 26.8492 20.9567 26.0028 21.0852C25.1564 21.2138 24.3154 21.6959 23.4797 22.5316C22.9119 23.0994 22.5128 23.6592 22.2824 24.211C22.0467 24.7574 21.9637 25.2743 22.0333 25.7618C22.1083 26.2439 22.3226 26.6617 22.6762 27.0153C22.9601 27.3206 23.2788 27.5161 23.6324 27.6019C23.9913 27.6822 24.3716 27.6822 24.7734 27.6019C25.1698 27.5161 25.5849 27.3742 26.0188 27.176C26.4474 26.9724 26.8813 26.7314 27.3206 26.4528L29.1526 25.3279C30.0311 24.7708 30.9043 24.3261 31.7721 23.994C32.6399 23.6619 33.489 23.4717 34.3193 23.4235C35.1496 23.3753 35.9505 23.4958 36.7219 23.7851C37.4986 24.069 38.2325 24.5511 38.9235 25.2314C39.9253 26.2439 40.5413 27.3742 40.7717 28.6223C41.002 29.8598 40.844 31.1588 40.2976 32.5195C39.7512 33.8694 38.8084 35.214 37.4692 36.5532C36.1407 37.8817 34.78 38.8352 33.3872 39.4138C31.9998 39.9869 30.6311 40.1503 29.2812 39.9039C27.9313 39.6468 26.651 38.9397 25.4403 37.7826L28.8071 34.4158C29.3964 34.9301 30.0151 35.2327 30.6633 35.3238C31.3114 35.4041 31.965 35.3024 32.6239 35.0184C33.2828 34.7238 33.9122 34.2765 34.5122 33.6765C35.1014 33.0873 35.5273 32.49 35.7898 31.8847C36.0576 31.274 36.1594 30.6954 36.0951 30.149C36.0308 29.6026 35.8005 29.1312 35.4041 28.7348C35.0345 28.3652 34.6139 28.1643 34.1425 28.1322C33.6765 28.0947 33.1462 28.1965 32.5516 28.4375C31.9623 28.6732 31.2954 29.0187 30.5508 29.4741L28.3089 30.816C26.584 31.8659 24.9609 32.4338 23.4395 32.5195C21.9182 32.6052 20.5522 32.0373 19.3415 30.816C18.3398 29.825 17.7344 28.6893 17.5255 27.409C17.322 26.1234 17.4827 24.8002 18.0076 23.4396C18.5326 22.0789 19.3951 20.7986 20.595 19.5987C21.8164 18.3773 23.0913 17.5202 24.4198 17.0274C25.7537 16.5292 27.0474 16.398 28.3009 16.6337C29.5544 16.8694 30.6793 17.4693 31.6757 18.4336L28.3411 21.7682Z" fill="#89C4E1" fill-opacity="0.2"/>
</svg>
